<svg width="1660" height="955" viewBox="0 0 1660 955" fill="none" xmlns="http://www.w3.org/2000/svg">
<g opacity="0.1">
<g opacity="0.23" filter="url(#filter0_f_1_5406)">
<path d="M383.867 529.21C338.534 469.539 168.483 605.814 168.483 605.814C157.882 625.516 145.714 667.084 181.85 675.742C333.474 712.072 304.435 855.765 466.125 771.657C466.125 771.657 667.487 603.976 577.176 577.956C520.795 561.711 479.46 642.967 430.519 610.601C399.96 590.392 429.201 588.88 383.867 529.21Z" fill="#92F879" fill-opacity="0.37"/>
</g>
<g opacity="0.23" filter="url(#filter1_f_1_5406)">
<path d="M1213.49 429.033C1211.64 513.226 1456.53 512.248 1456.53 512.248C1479.63 502.329 1519.4 474.269 1493.67 441.384C1385.68 303.403 1511.7 197.299 1310.65 158.231C1310.65 158.231 1016.26 164.943 1077.51 250.982C1115.76 304.697 1208.94 262.117 1229.36 324.812C1242.11 363.957 1215.33 344.841 1213.49 429.033Z" fill="#D7F879" fill-opacity="0.8"/>
</g>
</g>
<defs>
<filter id="filter0_f_1_5406" x="0.337006" y="356.796" width="757.438" height="598.165" filterUnits="userSpaceOnUse" color-interpolation-filters="sRGB">
<feFlood flood-opacity="0" result="BackgroundImageFix"/>
<feBlend mode="normal" in="SourceGraphic" in2="BackgroundImageFix" result="shape"/>
<feGaussianBlur stdDeviation="78.65" result="effect1_foregroundBlur_1_5406"/>
</filter>
<filter id="filter1_f_1_5406" x="911.829" y="0.930893" width="747.499" height="668.618" filterUnits="userSpaceOnUse" color-interpolation-filters="sRGB">
<feFlood flood-opacity="0" result="BackgroundImageFix"/>
<feBlend mode="normal" in="SourceGraphic" in2="BackgroundImageFix" result="shape"/>
<feGaussianBlur stdDeviation="78.65" result="effect1_foregroundBlur_1_5406"/>
</filter>
</defs>
</svg>
