<svg width="69" height="66" viewBox="0 0 69 66" fill="none" xmlns="http://www.w3.org/2000/svg">
<g filter="url(#filter0_d_1_5319)">
<path d="M27.0278 45.7358C27.6872 46.3959 28.6428 46.6305 29.5451 46.3927C34.8329 44.9987 44.1834 41.1987 49.3408 34.3782C56.6542 25.526 48.1892 14.5397 39.2231 18.3157C38.3322 18.6908 37.24 19.096 36.4076 19.5426C35.9598 19.7827 35.33 19.6471 35.0537 19.2208C34.3912 18.1984 33.3571 16.8741 32.6681 16.0701C27.5449 10.0914 14.5642 12.5642 16.165 25.8728C16.4771 31.6704 22.7693 41.472 27.0278 45.7358Z" fill="url(#paint0_radial_1_5319)"/>
<path d="M27.0278 45.7358C27.6872 46.3959 28.6428 46.6305 29.5451 46.3927C34.8329 44.9987 44.1834 41.1987 49.3408 34.3782C56.6542 25.526 48.1892 14.5397 39.2231 18.3157C38.3322 18.6908 37.24 19.096 36.4076 19.5426C35.9598 19.7827 35.33 19.6471 35.0537 19.2208C34.3912 18.1984 33.3571 16.8741 32.6681 16.0701C27.5449 10.0914 14.5642 12.5642 16.165 25.8728C16.4771 31.6704 22.7693 41.472 27.0278 45.7358Z" fill="url(#paint1_radial_1_5319)"/>
<path d="M27.0278 45.7358C27.6872 46.3959 28.6428 46.6305 29.5451 46.3927C34.8329 44.9987 44.1834 41.1987 49.3408 34.3782C56.6542 25.526 48.1892 14.5397 39.2231 18.3157C38.3322 18.6908 37.24 19.096 36.4076 19.5426C35.9598 19.7827 35.33 19.6471 35.0537 19.2208C34.3912 18.1984 33.3571 16.8741 32.6681 16.0701C27.5449 10.0914 14.5642 12.5642 16.165 25.8728C16.4771 31.6704 22.7693 41.472 27.0278 45.7358Z" fill="url(#paint2_radial_1_5319)"/>
<path d="M27.0278 45.7358C27.6872 46.3959 28.6428 46.6305 29.5451 46.3927C34.8329 44.9987 44.1834 41.1987 49.3408 34.3782C56.6542 25.526 48.1892 14.5397 39.2231 18.3157C38.3322 18.6908 37.24 19.096 36.4076 19.5426C35.9598 19.7827 35.33 19.6471 35.0537 19.2208C34.3912 18.1984 33.3571 16.8741 32.6681 16.0701C27.5449 10.0914 14.5642 12.5642 16.165 25.8728C16.4771 31.6704 22.7693 41.472 27.0278 45.7358Z" fill="url(#paint3_radial_1_5319)"/>
<path d="M27.0278 45.7358C27.6872 46.3959 28.6428 46.6305 29.5451 46.3927C34.8329 44.9987 44.1834 41.1987 49.3408 34.3782C56.6542 25.526 48.1892 14.5397 39.2231 18.3157C38.3322 18.6908 37.24 19.096 36.4076 19.5426C35.9598 19.7827 35.33 19.6471 35.0537 19.2208C34.3912 18.1984 33.3571 16.8741 32.6681 16.0701C27.5449 10.0914 14.5642 12.5642 16.165 25.8728C16.4771 31.6704 22.7693 41.472 27.0278 45.7358Z" fill="url(#paint4_radial_1_5319)"/>
<path d="M27.0278 45.7358C27.6872 46.3959 28.6428 46.6305 29.5451 46.3927C34.8329 44.9987 44.1834 41.1987 49.3408 34.3782C56.6542 25.526 48.1892 14.5397 39.2231 18.3157C38.3322 18.6908 37.24 19.096 36.4076 19.5426C35.9598 19.7827 35.33 19.6471 35.0537 19.2208C34.3912 18.1984 33.3571 16.8741 32.6681 16.0701C27.5449 10.0914 14.5642 12.5642 16.165 25.8728C16.4771 31.6704 22.7693 41.472 27.0278 45.7358Z" fill="url(#paint5_linear_1_5319)"/>
<path d="M27.0278 45.7358C27.6872 46.3959 28.6428 46.6305 29.5451 46.3927C34.8329 44.9987 44.1834 41.1987 49.3408 34.3782C56.6542 25.526 48.1892 14.5397 39.2231 18.3157C38.3322 18.6908 37.24 19.096 36.4076 19.5426C35.9598 19.7827 35.33 19.6471 35.0537 19.2208C34.3912 18.1984 33.3571 16.8741 32.6681 16.0701C27.5449 10.0914 14.5642 12.5642 16.165 25.8728C16.4771 31.6704 22.7693 41.472 27.0278 45.7358Z" fill="url(#paint6_radial_1_5319)"/>
<path d="M27.0278 45.7358C27.6872 46.3959 28.6428 46.6305 29.5451 46.3927C34.8329 44.9987 44.1834 41.1987 49.3408 34.3782C56.6542 25.526 48.1892 14.5397 39.2231 18.3157C38.3322 18.6908 37.24 19.096 36.4076 19.5426C35.9598 19.7827 35.33 19.6471 35.0537 19.2208C34.3912 18.1984 33.3571 16.8741 32.6681 16.0701C27.5449 10.0914 14.5642 12.5642 16.165 25.8728C16.4771 31.6704 22.7693 41.472 27.0278 45.7358Z" fill="url(#paint7_radial_1_5319)"/>
<path d="M27.0278 45.7358C27.6872 46.3959 28.6428 46.6305 29.5451 46.3927C34.8329 44.9987 44.1834 41.1987 49.3408 34.3782C56.6542 25.526 48.1892 14.5397 39.2231 18.3157C38.3322 18.6908 37.24 19.096 36.4076 19.5426C35.9598 19.7827 35.33 19.6471 35.0537 19.2208C34.3912 18.1984 33.3571 16.8741 32.6681 16.0701C27.5449 10.0914 14.5642 12.5642 16.165 25.8728C16.4771 31.6704 22.7693 41.472 27.0278 45.7358Z" fill="url(#paint8_radial_1_5319)"/>
<path d="M27.0278 45.7358C27.6872 46.3959 28.6428 46.6305 29.5451 46.3927C34.8329 44.9987 44.1834 41.1987 49.3408 34.3782C56.6542 25.526 48.1892 14.5397 39.2231 18.3157C38.3322 18.6908 37.24 19.096 36.4076 19.5426C35.9598 19.7827 35.33 19.6471 35.0537 19.2208C34.3912 18.1984 33.3571 16.8741 32.6681 16.0701C27.5449 10.0914 14.5642 12.5642 16.165 25.8728C16.4771 31.6704 22.7693 41.472 27.0278 45.7358Z" fill="url(#paint9_radial_1_5319)"/>
<path d="M27.0278 45.7358C27.6872 46.3959 28.6428 46.6305 29.5451 46.3927C34.8329 44.9987 44.1834 41.1987 49.3408 34.3782C56.6542 25.526 48.1892 14.5397 39.2231 18.3157C38.3322 18.6908 37.24 19.096 36.4076 19.5426C35.9598 19.7827 35.33 19.6471 35.0537 19.2208C34.3912 18.1984 33.3571 16.8741 32.6681 16.0701C27.5449 10.0914 14.5642 12.5642 16.165 25.8728C16.4771 31.6704 22.7693 41.472 27.0278 45.7358Z" fill="url(#paint10_radial_1_5319)"/>
<path d="M27.0278 45.7358C27.6872 46.3959 28.6428 46.6305 29.5451 46.3927C34.8329 44.9987 44.1834 41.1987 49.3408 34.3782C56.6542 25.526 48.1892 14.5397 39.2231 18.3157C38.3322 18.6908 37.24 19.096 36.4076 19.5426C35.9598 19.7827 35.33 19.6471 35.0537 19.2208C34.3912 18.1984 33.3571 16.8741 32.6681 16.0701C27.5449 10.0914 14.5642 12.5642 16.165 25.8728C16.4771 31.6704 22.7693 41.472 27.0278 45.7358Z" fill="url(#paint11_radial_1_5319)"/>
<path d="M27.0278 45.7358C27.6872 46.3959 28.6428 46.6305 29.5451 46.3927C34.8329 44.9987 44.1834 41.1987 49.3408 34.3782C56.6542 25.526 48.1892 14.5397 39.2231 18.3157C38.3322 18.6908 37.24 19.096 36.4076 19.5426C35.9598 19.7827 35.33 19.6471 35.0537 19.2208C34.3912 18.1984 33.3571 16.8741 32.6681 16.0701C27.5449 10.0914 14.5642 12.5642 16.165 25.8728C16.4771 31.6704 22.7693 41.472 27.0278 45.7358Z" fill="url(#paint12_radial_1_5319)"/>
<path d="M27.0278 45.7358C27.6872 46.3959 28.6428 46.6305 29.5451 46.3927C34.8329 44.9987 44.1834 41.1987 49.3408 34.3782C56.6542 25.526 48.1892 14.5397 39.2231 18.3157C38.3322 18.6908 37.24 19.096 36.4076 19.5426C35.9598 19.7827 35.33 19.6471 35.0537 19.2208C34.3912 18.1984 33.3571 16.8741 32.6681 16.0701C27.5449 10.0914 14.5642 12.5642 16.165 25.8728C16.4771 31.6704 22.7693 41.472 27.0278 45.7358Z" fill="url(#paint13_linear_1_5319)"/>
<path d="M27.0278 45.7358C27.6872 46.3959 28.6428 46.6305 29.5451 46.3927C34.8329 44.9987 44.1834 41.1987 49.3408 34.3782C56.6542 25.526 48.1892 14.5397 39.2231 18.3157C38.3322 18.6908 37.24 19.096 36.4076 19.5426C35.9598 19.7827 35.33 19.6471 35.0537 19.2208C34.3912 18.1984 33.3571 16.8741 32.6681 16.0701C27.5449 10.0914 14.5642 12.5642 16.165 25.8728C16.4771 31.6704 22.7693 41.472 27.0278 45.7358Z" fill="url(#paint14_linear_1_5319)"/>
<path d="M27.0278 45.7358C27.6872 46.3959 28.6428 46.6305 29.5451 46.3927C34.8329 44.9987 44.1834 41.1987 49.3408 34.3782C56.6542 25.526 48.1892 14.5397 39.2231 18.3157C38.3322 18.6908 37.24 19.096 36.4076 19.5426C35.9598 19.7827 35.33 19.6471 35.0537 19.2208C34.3912 18.1984 33.3571 16.8741 32.6681 16.0701C27.5449 10.0914 14.5642 12.5642 16.165 25.8728C16.4771 31.6704 22.7693 41.472 27.0278 45.7358Z" fill="url(#paint15_radial_1_5319)"/>
</g>
<defs>
<filter id="filter0_d_1_5319" x="0.0292358" y="-0.00366211" width="68.0859" height="65.4869" filterUnits="userSpaceOnUse" color-interpolation-filters="sRGB">
<feFlood flood-opacity="0" result="BackgroundImageFix"/>
<feColorMatrix in="SourceAlpha" type="matrix" values="0 0 0 0 0 0 0 0 0 0 0 0 0 0 0 0 0 0 127 0" result="hardAlpha"/>
<feOffset dy="3"/>
<feGaussianBlur stdDeviation="8"/>
<feComposite in2="hardAlpha" operator="out"/>
<feColorMatrix type="matrix" values="0 0 0 0 1 0 0 0 0 0.597819 0 0 0 0 0.731139 0 0 0 0.6 0"/>
<feBlend mode="normal" in2="BackgroundImageFix" result="effect1_dropShadow_1_5319"/>
<feBlend mode="normal" in="SourceGraphic" in2="effect1_dropShadow_1_5319" result="shape"/>
</filter>
<radialGradient id="paint0_radial_1_5319" cx="0" cy="0" r="1" gradientUnits="userSpaceOnUse" gradientTransform="translate(36.1844 16.8389) rotate(105.596) scale(30.2019 31.1007)">
<stop stop-color="#FF3482"/>
<stop offset="1" stop-color="#FF1F5F"/>
</radialGradient>
<radialGradient id="paint1_radial_1_5319" cx="0" cy="0" r="1" gradientUnits="userSpaceOnUse" gradientTransform="translate(57.3317 39.9993) rotate(-178.413) scale(46.1013 46.1013)">
<stop offset="0.46875" stop-color="#FF5B99" stop-opacity="0"/>
<stop offset="0.625" stop-color="#B91D43"/>
</radialGradient>
<radialGradient id="paint2_radial_1_5319" cx="0" cy="0" r="1" gradientUnits="userSpaceOnUse" gradientTransform="translate(55.0831 27.0829) rotate(58.8184) scale(37.5133 38.6297)">
<stop offset="0.436191" stop-color="#FF2C64" stop-opacity="0"/>
<stop offset="0.579111" stop-color="#FF2C64"/>
<stop offset="0.820977" stop-color="#FF2C64"/>
</radialGradient>
<radialGradient id="paint3_radial_1_5319" cx="0" cy="0" r="1" gradientUnits="userSpaceOnUse" gradientTransform="translate(51.1099 23.0999) rotate(144.798) scale(15.3677 7.03213)">
<stop offset="0.285125" stop-color="#FF7AA9"/>
<stop offset="1" stop-color="#FF689F" stop-opacity="0"/>
</radialGradient>
<radialGradient id="paint4_radial_1_5319" cx="0" cy="0" r="1" gradientUnits="userSpaceOnUse" gradientTransform="translate(29.7586 16.5249) rotate(90.2019) scale(26.7453 10.127)">
<stop stop-color="#FF94BA"/>
<stop offset="0.829857" stop-color="#FF689F" stop-opacity="0"/>
</radialGradient>
<linearGradient id="paint5_linear_1_5319" x1="46.085" y1="28.2346" x2="30.2373" y2="25.3386" gradientUnits="userSpaceOnUse">
<stop offset="0.592259" stop-color="#FF2F77" stop-opacity="0"/>
<stop offset="0.728317" stop-color="#FF2F77"/>
<stop offset="0.889416" stop-color="#FF2F77" stop-opacity="0"/>
</linearGradient>
<radialGradient id="paint6_radial_1_5319" cx="0" cy="0" r="1" gradientUnits="userSpaceOnUse" gradientTransform="translate(24.1607 39.5911) rotate(129.383) scale(128.384 100.944)">
<stop offset="0.213872" stop-color="#FF5597" stop-opacity="0"/>
<stop offset="0.280316" stop-color="#FF5597"/>
</radialGradient>
<radialGradient id="paint7_radial_1_5319" cx="0" cy="0" r="1" gradientUnits="userSpaceOnUse" gradientTransform="translate(34.3302 31.525) rotate(129.77) scale(8.43166 4.14456)">
<stop stop-color="#CA164C"/>
<stop offset="1" stop-color="#FF2C77" stop-opacity="0"/>
</radialGradient>
<radialGradient id="paint8_radial_1_5319" cx="0" cy="0" r="1" gradientUnits="userSpaceOnUse" gradientTransform="translate(37.0869 29.3864) rotate(127.127) scale(3.75782)">
<stop stop-color="#FE3E80"/>
<stop offset="1" stop-color="#FE3E80" stop-opacity="0"/>
</radialGradient>
<radialGradient id="paint9_radial_1_5319" cx="0" cy="0" r="1" gradientUnits="userSpaceOnUse" gradientTransform="translate(30.0078 12.9755) rotate(90.3945) scale(10.8329)">
<stop offset="0.226211" stop-color="#FF3A8C"/>
<stop offset="1" stop-color="#FF3A8C" stop-opacity="0"/>
</radialGradient>
<radialGradient id="paint10_radial_1_5319" cx="0" cy="0" r="1" gradientUnits="userSpaceOnUse" gradientTransform="translate(33.3727 13.8977) rotate(109.14) scale(10.4904)">
<stop offset="0.226211" stop-color="#FF3A8C"/>
<stop offset="0.631601" stop-color="#FF3A8C" stop-opacity="0"/>
</radialGradient>
<radialGradient id="paint11_radial_1_5319" cx="0" cy="0" r="1" gradientUnits="userSpaceOnUse" gradientTransform="translate(55.0831 27.0829) rotate(60.9419) scale(45.8912 47.2569)">
<stop offset="0.605375" stop-color="#D32750" stop-opacity="0"/>
<stop offset="0.760922" stop-color="#D32750"/>
</radialGradient>
<radialGradient id="paint12_radial_1_5319" cx="0" cy="0" r="1" gradientUnits="userSpaceOnUse" gradientTransform="translate(45.5219 38.2099) rotate(42.3061) scale(43.0668 26.8504)">
<stop offset="0.734432" stop-color="#C03D60" stop-opacity="0"/>
<stop offset="0.785127" stop-color="#C03D60"/>
</radialGradient>
<linearGradient id="paint13_linear_1_5319" x1="17.9095" y1="46.5604" x2="32.3661" y2="36.0516" gradientUnits="userSpaceOnUse">
<stop offset="0.389423" stop-color="#E3559F"/>
<stop offset="0.508449" stop-color="#E3559F" stop-opacity="0"/>
</linearGradient>
<linearGradient id="paint14_linear_1_5319" x1="37.3066" y1="49.7057" x2="32.3661" y2="36.0516" gradientUnits="userSpaceOnUse">
<stop offset="0.34991" stop-color="#E3559F"/>
<stop offset="0.458081" stop-color="#E3559F" stop-opacity="0"/>
</linearGradient>
<radialGradient id="paint15_radial_1_5319" cx="0" cy="0" r="1" gradientUnits="userSpaceOnUse" gradientTransform="translate(28.3733 47.981) rotate(-71.4943) scale(12.5799 14.3793)">
<stop offset="0.0975182" stop-color="#E3559F"/>
<stop offset="0.250164" stop-color="#E3559F" stop-opacity="0"/>
</radialGradient>
</defs>
</svg>
