<svg width="1440" height="1049" viewBox="0 0 1440 1049" fill="none" xmlns="http://www.w3.org/2000/svg">
<g opacity="0.12">
<line x1="197" y1="472.5" x2="1242" y2="472.5" stroke="white"/>
<line x1="81" y1="792.5" x2="1358" y2="792.5" stroke="white"/>
<line x1="81" y1="728.5" x2="1358" y2="728.5" stroke="white"/>
<line x1="81" y1="1048.5" x2="1358" y2="1048.5" stroke="white"/>
<line x1="197" y1="408.5" x2="1242" y2="408.5" stroke="white"/>
<line x1="197" y1="664.5" x2="1242" y2="664.5" stroke="white"/>
<line x1="81" y1="984.5" x2="1358" y2="984.5" stroke="white"/>
<line x1="81" y1="344.5" x2="1358" y2="344.5" stroke="white"/>
<line x1="197" y1="600.5" x2="1242" y2="600.5" stroke="white"/>
<line x1="81" y1="920.5" x2="1358" y2="920.5" stroke="white"/>
<line x1="197" y1="536.5" x2="1242" y2="536.5" stroke="white"/>
<line x1="81" y1="856.5" x2="1358" y2="856.5" stroke="white"/>
<line x1="4.37114e-08" y1="248.5" x2="1440" y2="248.5" stroke="white"/>
<line x1="4.37114e-08" y1="80.5001" x2="1440" y2="80.5003" stroke="white"/>
<line x1="4.37114e-08" y1="0.5" x2="1440" y2="0.500126" stroke="white"/>
</g>
</svg>
