<svg width="695" height="391" viewBox="0 0 695 391" fill="none" xmlns="http://www.w3.org/2000/svg">
<path fill-rule="evenodd" clip-rule="evenodd" d="M692.983 350.995L693.983 351.005L694.983 351.015C694.994 349.845 695 348.673 695 347.5C695 346.327 694.994 345.155 694.983 343.985L693.983 343.995L692.983 344.005C692.994 345.168 693 346.334 693 347.5C693 348.666 692.994 349.832 692.983 350.995ZM693.844 337.009L692.845 337.039C692.776 334.723 692.684 332.412 692.57 330.108L693.569 330.058L694.567 330.009C694.682 332.327 694.775 334.65 694.844 336.98L693.844 337.009ZM693.152 323.073L692.155 323.143C691.993 320.826 691.809 318.515 691.602 316.211L692.598 316.122L693.594 316.032C693.802 318.35 693.988 320.674 694.15 323.004L693.152 323.073ZM691.905 309.182L690.911 309.292C690.657 306.979 690.38 304.673 690.08 302.375L691.071 302.245L692.063 302.116C692.365 304.428 692.643 306.747 692.899 309.073L691.905 309.182ZM690.101 295.351L689.113 295.5C688.765 293.198 688.395 290.904 688.002 288.617L688.988 288.448L689.974 288.278C690.368 290.578 690.741 292.886 691.09 295.201L690.101 295.351ZM687.738 281.586L686.756 281.775C686.317 279.495 685.856 277.222 685.372 274.959L686.35 274.75L687.328 274.541C687.814 276.818 688.278 279.103 688.72 281.396L687.738 281.586ZM684.821 267.934L683.848 268.163C683.317 265.906 682.765 263.658 682.191 261.418L683.159 261.17L684.128 260.921C684.706 263.174 685.261 265.435 685.795 267.705L684.821 267.934ZM681.354 254.416L680.391 254.685C679.768 252.448 679.124 250.221 678.459 248.004L679.416 247.716L680.374 247.429C681.044 249.659 681.692 251.899 682.317 254.148L681.354 254.416ZM677.342 241.053L676.391 241.36C675.677 239.149 674.943 236.948 674.187 234.757L675.132 234.43L676.077 234.104C676.838 236.308 677.577 238.523 678.294 240.746L677.342 241.053ZM672.792 227.865L671.854 228.211C671.051 226.029 670.227 223.858 669.382 221.697L670.313 221.333L671.244 220.968C672.094 223.142 672.923 225.326 673.731 227.52L672.792 227.865ZM667.707 214.864L666.783 215.247C665.894 213.102 664.983 210.968 664.052 208.845L664.968 208.443L665.884 208.041C666.82 210.177 667.736 212.323 668.631 214.481L667.707 214.864ZM662.1 202.08L661.192 202.5C660.217 200.395 659.222 198.301 658.207 196.219L659.105 195.781L660.004 195.343C661.026 197.437 662.027 199.543 663.007 201.66L662.1 202.08ZM655.981 189.536L655.091 189.993C654.032 187.929 652.953 185.877 651.854 183.838L652.734 183.364L653.615 182.889C654.72 184.941 655.805 187.004 656.87 189.08L655.981 189.536ZM649.36 177.251L648.49 177.743C647.348 175.723 646.186 173.716 645.005 171.721L645.866 171.211L646.726 170.702C647.914 172.708 649.083 174.727 650.231 176.759L649.36 177.251ZM642.25 165.244L641.4 165.77C640.178 163.797 638.936 161.837 637.675 159.891L638.514 159.347L639.354 158.804C640.622 160.761 641.871 162.732 643.101 164.717L642.25 165.244ZM634.663 153.532L633.835 154.092C632.534 152.17 631.214 150.261 629.875 148.367L630.692 147.79L631.509 147.213C632.855 149.118 634.183 151.038 635.491 152.972L634.663 153.532ZM626.609 142.132L625.804 142.725C624.428 140.857 623.033 139.004 621.62 137.165L622.412 136.556L623.205 135.946C624.627 137.796 626.03 139.66 627.414 141.539L626.609 142.132ZM618.105 131.065L617.324 131.69C615.874 129.88 614.406 128.084 612.921 126.304L613.689 125.663L614.457 125.022C615.951 126.813 617.427 128.619 618.885 130.44L618.105 131.065ZM609.164 120.349L608.409 121.005C606.888 119.254 605.35 117.518 603.794 115.799L604.535 115.128L605.277 114.457C606.842 116.186 608.389 117.932 609.919 119.693L609.164 120.349ZM599.802 109.999L599.074 110.685C597.484 108.996 595.877 107.323 594.253 105.667L594.967 104.967L595.681 104.267C597.314 105.933 598.931 107.615 600.53 109.314L599.802 109.999ZM590.033 100.033L589.333 100.747C587.677 99.1232 586.004 97.5162 584.315 95.9259L585.001 95.1979L585.686 94.4699C587.385 96.0693 589.067 97.6856 590.733 99.3185L590.033 100.033ZM579.872 90.4646L579.201 91.2062C577.482 89.6505 575.746 88.1118 573.995 86.5906L574.651 85.8357L575.307 85.0808C577.068 86.6108 578.814 88.1583 580.543 89.723L579.872 90.4646ZM569.337 81.3111L568.696 82.0789C566.916 80.5935 565.12 79.1257 563.31 77.6757L563.935 76.8952L564.56 76.1146C566.381 77.573 568.187 79.0493 569.978 80.5432L569.337 81.3111ZM558.444 72.5876L557.835 73.3805C555.996 71.9674 554.143 70.5724 552.275 69.1958L552.868 68.3908L553.461 67.5858C555.34 68.9704 557.204 70.3734 559.054 71.7947L558.444 72.5876ZM547.21 64.3079L546.633 65.1246C544.739 63.7861 542.83 62.4661 540.907 61.165L541.468 60.3368L542.028 59.5087C543.962 60.8173 545.882 62.1449 547.787 63.4912L547.21 64.3079ZM535.653 56.4857L535.109 57.325C533.163 56.064 531.203 54.8221 529.23 53.5995L529.756 52.7495L530.283 51.8995C532.268 53.1291 534.239 54.3782 536.196 55.6464L535.653 56.4857ZM523.789 49.1341L523.279 49.9946C521.285 48.8136 519.277 47.652 517.257 46.5102L517.749 45.6397L518.241 44.7691C520.273 45.9175 522.292 47.0858 524.298 48.2737L523.789 49.1341ZM511.636 42.2656L511.162 43.146C509.123 42.0471 507.071 40.9681 505.007 39.9092L505.464 39.0195L505.92 38.1298C507.996 39.1948 510.059 40.28 512.111 41.3853L511.636 42.2656ZM499.219 35.8946L498.781 36.7934C496.699 35.7778 494.605 34.7825 492.5 33.8078L492.92 32.9004L493.34 31.9929C495.457 32.9733 497.563 33.9744 499.657 34.9959L499.219 35.8946ZM486.557 30.0322L486.155 30.948C484.032 30.0167 481.898 29.1062 479.753 28.2167L480.136 27.293L480.519 26.3693C482.677 27.264 484.823 28.1798 486.959 29.1164L486.557 30.0322ZM473.667 24.6869L473.303 25.6182C471.142 24.7731 468.971 23.9491 466.789 23.1465L467.135 22.208L467.48 21.2695C469.674 22.0768 471.858 22.9056 474.032 23.7556L473.667 24.6869ZM460.569 19.868L460.243 20.8133C458.052 20.0572 455.851 19.3225 453.64 18.6095L453.947 17.6577L454.254 16.706C456.477 17.4232 458.692 18.1621 460.896 18.9226L460.569 19.868ZM447.284 15.5835L446.996 16.5413C444.779 15.8755 442.552 15.2315 440.315 14.6093L440.583 13.6459L440.852 12.6825C443.101 13.3083 445.341 13.9561 447.571 14.6257L447.284 15.5835ZM433.83 11.8407L433.582 12.8094C431.342 12.2351 429.094 11.6827 426.837 11.1524L427.066 10.1789L427.295 9.20544C429.565 9.73881 431.826 10.2944 434.078 10.8721L433.83 11.8407ZM420.25 8.65025L420.041 9.62817C417.777 9.14445 415.505 8.68291 413.225 8.24379L413.414 7.26183L413.604 6.27988C415.897 6.72156 418.182 7.18578 420.459 7.67232L420.25 8.65025ZM406.552 6.01206L406.383 6.99764C404.096 6.60499 401.802 6.23481 399.5 5.88735L399.649 4.89855L399.799 3.90975C402.114 4.25923 404.422 4.63155 406.722 5.02648L406.552 6.01206ZM392.755 3.92866L392.625 4.92026C390.327 4.62041 388.021 4.34317 385.708 4.08874L385.818 3.09474L385.927 2.10074C388.253 2.35663 390.572 2.63548 392.884 2.93706L392.755 3.92866ZM378.878 2.40165L378.789 3.39765C376.485 3.19083 374.174 3.00662 371.857 2.84526L371.927 1.84768L371.996 0.850098C374.326 1.01238 376.65 1.19764 378.967 1.40566L378.878 2.40165ZM364.942 1.43137L364.892 2.43015C362.588 2.31589 360.277 2.22422 357.961 2.15534L357.991 1.15578L358.02 0.156225C360.35 0.225495 362.673 0.317692 364.991 0.4326L364.942 1.43137ZM351.005 1.01736L350.995 2.01731C349.832 2.00578 348.666 2 347.5 2C346.334 2 345.168 2.00578 344.005 2.01731L343.995 1.01736L343.985 0.0174124C345.155 0.00581312 346.327 0 347.5 0C348.673 0 349.845 0.00581336 351.015 0.017413L351.005 1.01736ZM337.009 1.15578L337.039 2.15534C334.723 2.22422 332.412 2.31589 330.108 2.43015L330.058 1.43137L330.009 0.4326C332.327 0.317692 334.65 0.225494 336.98 0.156224L337.009 1.15578ZM323.073 1.84768L323.143 2.84527C320.826 3.00663 318.515 3.19083 316.211 3.39765L316.122 2.40166L316.032 1.40566C318.35 1.19765 320.674 1.01239 323.004 0.850101L323.073 1.84768ZM309.182 3.09475L309.292 4.08875C306.979 4.34317 304.673 4.62042 302.374 4.92027L302.245 3.92867L302.116 2.93707C304.428 2.63549 306.747 2.35664 309.073 2.10074L309.182 3.09475ZM295.351 4.89855L295.5 5.88735C293.198 6.23482 290.904 6.60499 288.617 6.99765L288.448 6.01207L288.278 5.02649C290.578 4.63156 292.886 4.25923 295.201 3.90975L295.351 4.89855ZM281.586 7.26184L281.775 8.24379C279.495 8.68292 277.222 9.14446 274.959 9.62818L274.75 8.65026L274.541 7.67233C276.818 7.18579 279.103 6.72156 281.396 6.27988L281.586 7.26184ZM267.934 10.1789L268.163 11.1524C265.906 11.6827 263.658 12.2351 261.418 12.8094L261.17 11.8408L260.921 10.8721C263.174 10.2945 265.435 9.73882 267.705 9.20545L267.934 10.1789ZM254.416 13.646L254.685 14.6094C252.448 15.2315 250.221 15.8756 248.004 16.5413L247.716 15.5835L247.429 14.6258C249.659 13.9561 251.899 13.3083 254.148 12.6825L254.416 13.646ZM241.053 17.6578L241.36 18.6095C239.149 19.3225 236.948 20.0572 234.757 20.8133L234.43 19.868L234.104 18.9227C236.308 18.1621 238.523 17.4232 240.746 16.706L241.053 17.6578ZM227.865 22.208L228.211 23.1465C226.029 23.9491 223.858 24.7731 221.697 25.6182L221.333 24.6869L220.968 23.7556C223.142 22.9056 225.326 22.0768 227.52 21.2695L227.865 22.208ZM214.864 27.293L215.247 28.2167C213.102 29.1062 210.968 30.0168 208.845 30.948L208.443 30.0322L208.041 29.1164C210.177 28.1798 212.323 27.264 214.481 26.3693L214.864 27.293ZM202.08 32.9004L202.5 33.8078C200.395 34.7826 198.301 35.7778 196.219 36.7934L195.781 35.8946L195.343 34.9959C197.437 33.9744 199.543 32.9733 201.66 31.9929L202.08 32.9004ZM189.536 39.0195L189.993 39.9092C187.929 40.9681 185.877 42.0471 183.838 43.146L183.364 42.2656L182.889 41.3853C184.941 40.28 187.004 39.1948 189.08 38.1298L189.536 39.0195ZM177.251 45.6397L177.743 46.5102C175.723 47.652 173.716 48.8136 171.721 49.9946L171.211 49.1341L170.702 48.2736C172.708 47.0858 174.727 45.9175 176.759 44.7691L177.251 45.6397ZM165.244 52.7495L165.77 53.5995C163.797 54.8221 161.837 56.064 159.891 57.325L159.347 56.4857L158.804 55.6464C160.761 54.3782 162.732 53.1291 164.717 51.8995L165.244 52.7495ZM153.532 60.3368L154.092 61.165C152.17 62.4661 150.261 63.7861 148.367 65.1246L147.79 64.3079L147.213 63.4912C149.118 62.1449 151.038 60.8173 152.972 59.5087L153.532 60.3368ZM142.132 68.3908L142.725 69.1958C140.857 70.5724 139.004 71.9674 137.165 73.3805L136.556 72.5876L135.946 71.7946C137.796 70.3734 139.66 68.9704 141.539 67.5858L142.132 68.3908ZM131.065 76.8952L131.69 77.6757C129.88 79.1257 128.084 80.5935 126.304 82.079L125.663 81.3111L125.022 80.5432C126.813 79.0493 128.619 77.573 130.44 76.1146L131.065 76.8952ZM120.349 85.8357L121.005 86.5905C119.254 88.1118 117.518 89.6505 115.799 91.2061L115.128 90.4646L114.457 89.723C116.186 88.1583 117.932 86.6108 119.693 85.0808L120.349 85.8357ZM109.999 95.1979L110.685 95.9259C108.996 97.5162 107.323 99.1232 105.667 100.747L104.967 100.033L104.267 99.3185C105.933 97.6856 107.615 96.0693 109.314 94.4699L109.999 95.1979ZM100.033 104.967L100.747 105.667C99.1232 107.323 97.5162 108.996 95.9259 110.685L95.1979 109.999L94.4699 109.314C96.0693 107.615 97.6856 105.933 99.3185 104.267L100.033 104.967ZM90.4646 115.128L91.2062 115.798C89.6505 117.518 88.1118 119.254 86.5906 121.005L85.8357 120.349L85.0808 119.693C86.6108 117.932 88.1583 116.186 89.723 114.457L90.4646 115.128ZM81.3111 125.663L82.079 126.304C80.5935 128.084 79.1257 129.88 77.6757 131.69L76.8952 131.065L76.1146 130.44C77.573 128.619 79.0493 126.813 80.5432 125.022L81.3111 125.663ZM72.5876 136.556L73.3805 137.165C71.9674 139.004 70.5724 140.857 69.1958 142.725L68.3908 142.132L67.5858 141.539C68.9704 139.66 70.3734 137.796 71.7947 135.946L72.5876 136.556ZM64.3079 147.79L65.1246 148.367C63.7861 150.261 62.4661 152.17 61.165 154.093L60.3368 153.532L59.5087 152.972C60.8173 151.038 62.1449 149.118 63.4912 147.213L64.3079 147.79ZM56.4857 159.347L57.325 159.891C56.064 161.837 54.8221 163.797 53.5995 165.77L52.7495 165.244L51.8995 164.717C53.1291 162.732 54.3782 160.761 55.6464 158.804L56.4857 159.347ZM49.1341 171.211L49.9946 171.721C48.8136 173.715 47.652 175.723 46.5102 177.743L45.6397 177.251L44.7691 176.759C45.9175 174.727 47.0858 172.708 48.2737 170.702L49.1341 171.211ZM42.2656 183.364L43.146 183.838C42.0471 185.877 40.9681 187.929 39.9092 189.993L39.0195 189.536L38.1298 189.08C39.1948 187.004 40.28 184.941 41.3853 182.889L42.2656 183.364ZM35.8946 195.781L36.7934 196.219C35.7778 198.301 34.7826 200.395 33.8078 202.5L32.9004 202.08L31.9929 201.66C32.9733 199.543 33.9744 197.437 34.9959 195.343L35.8946 195.781ZM30.0322 208.443L30.948 208.845C30.0167 210.968 29.1062 213.102 28.2167 215.247L27.293 214.864L26.3693 214.481C27.264 212.323 28.1798 210.177 29.1164 208.041L30.0322 208.443ZM24.6869 221.333L25.6182 221.697C24.7731 223.858 23.9491 226.029 23.1465 228.211L22.208 227.865L21.2695 227.52C22.0768 225.326 22.9056 223.142 23.7556 220.968L24.6869 221.333ZM19.868 234.431L20.8133 234.757C20.0572 236.948 19.3225 239.149 18.6095 241.36L17.6577 241.053L16.706 240.746C17.4232 238.523 18.1621 236.308 18.9226 234.104L19.868 234.431ZM15.5835 247.716L16.5413 248.004C15.8755 250.221 15.2315 252.448 14.6093 254.685L13.6459 254.417L12.6825 254.148C13.3083 251.899 13.9561 249.659 14.6257 247.429L15.5835 247.716ZM11.8407 261.17L12.8094 261.418C12.2351 263.658 11.6827 265.906 11.1524 268.163L10.1789 267.934L9.20544 267.705C9.73881 265.435 10.2944 263.174 10.8721 260.922L11.8407 261.17ZM8.65025 274.75L9.62817 274.959C9.14445 277.223 8.68291 279.495 8.24379 281.775L7.26183 281.586L6.27988 281.396C6.72156 279.103 7.18578 276.818 7.67232 274.541L8.65025 274.75ZM6.01206 288.448L6.99764 288.617C6.60499 290.904 6.23481 293.198 5.88735 295.5L4.89855 295.351L3.90975 295.201C4.25923 292.886 4.63155 290.578 5.02648 288.278L6.01206 288.448ZM3.92866 302.245L4.92026 302.375C4.62041 304.673 4.34317 306.979 4.08874 309.292L3.09474 309.182L2.10074 309.073C2.35663 306.747 2.63548 304.428 2.93706 302.116L3.92866 302.245ZM2.40165 316.122L3.39765 316.211C3.19083 318.515 3.00662 320.826 2.84526 323.143L1.84768 323.073L0.850098 323.004C1.01238 320.674 1.19764 318.35 1.40566 316.033L2.40165 316.122ZM1.43137 330.058L2.43015 330.108C2.31589 332.412 2.22422 334.723 2.15534 337.039L1.15578 337.009L0.156225 336.98C0.225495 334.65 0.317692 332.327 0.4326 330.009L1.43137 330.058ZM2 347.5C2 346.334 2.00578 345.168 2.01731 344.005L1.01736 343.995L0.017413 343.985C0.00581336 345.155 0 346.327 0 347.5C0 348.673 0.00581312 349.845 0.0174124 351.015L1.01736 351.005L2.01731 350.995C2.00578 349.832 2 348.666 2 347.5ZM1.15578 357.991L2.15534 357.961C2.22422 360.277 2.31589 362.588 2.43015 364.892L1.43137 364.942L0.4326 364.991C0.317692 362.673 0.225494 360.35 0.156224 358.02L1.15578 357.991ZM1.84768 371.927L2.84527 371.857C3.00663 374.174 3.19083 376.485 3.39765 378.789L2.40166 378.878L1.40566 378.968C1.19765 376.65 1.01239 374.326 0.850101 371.996L1.84768 371.927ZM3.09475 385.818L4.08875 385.708C4.28324 387.476 4.49108 389.24 4.71215 391H2.69652C2.4858 389.313 2.28718 387.622 2.10074 385.927L3.09475 385.818ZM692.303 391C692.514 389.313 692.713 387.622 692.899 385.927L691.905 385.818L690.911 385.708C690.717 387.476 690.509 389.24 690.288 391H692.303ZM692.598 378.878L691.602 378.789C691.809 376.485 691.993 374.174 692.155 371.857L693.152 371.927L694.15 371.996C693.988 374.326 693.802 376.65 693.594 378.967L692.598 378.878ZM693.569 364.942L692.57 364.892C692.684 362.588 692.776 360.277 692.845 357.961L693.844 357.991L694.844 358.02C694.774 360.35 694.682 362.673 694.567 364.991L693.569 364.942Z" fill="#ADFFE4"/>
</svg>
